<svg xmlns="http://www.w3.org/2000/svg" viewBox="0 0 256 256" role="img" aria-label="TriedingView logo">
  <defs>
    <linearGradient id="bg" x1="32" y1="24" x2="224" y2="232" gradientUnits="userSpaceOnUse">
      <stop offset="0" stop-color="#0f172a"/>
      <stop offset="1" stop-color="#020617"/>
    </linearGradient>
    <linearGradient id="up" x1="64" y1="188" x2="192" y2="68" gradientUnits="userSpaceOnUse">
      <stop offset="0" stop-color="#14b8a6"/>
      <stop offset="1" stop-color="#22c55e"/>
    </linearGradient>
    <linearGradient id="glow" x1="72" y1="60" x2="184" y2="196" gradientUnits="userSpaceOnUse">
      <stop offset="0" stop-color="#38bdf8" stop-opacity="0.22"/>
      <stop offset="1" stop-color="#38bdf8" stop-opacity="0"/>
    </linearGradient>
  </defs>

  <rect x="16" y="16" width="224" height="224" rx="52" fill="url(#bg)"/>
  <rect x="18" y="18" width="220" height="220" rx="50" fill="none" stroke="#1e293b" stroke-width="4"/>
  <circle cx="90" cy="88" r="58" fill="url(#glow)"/>

  <line x1="72" y1="84" x2="72" y2="180" stroke="#f8fafc" stroke-width="10" stroke-linecap="round"/>
  <rect x="56" y="104" width="32" height="44" rx="10" fill="#f97316"/>

  <line x1="128" y1="64" x2="128" y2="188" stroke="#f8fafc" stroke-width="10" stroke-linecap="round"/>
  <rect x="112" y="88" width="32" height="68" rx="10" fill="#22c55e"/>

  <line x1="184" y1="76" x2="184" y2="172" stroke="#f8fafc" stroke-width="10" stroke-linecap="round"/>
  <rect x="168" y="112" width="32" height="36" rx="10" fill="#38bdf8"/>

  <path d="M60 182 98 146 132 156 196 92" fill="none" stroke="url(#up)" stroke-width="12" stroke-linecap="round" stroke-linejoin="round"/>
  <path d="M196 92v34M196 92h-34" fill="none" stroke="#22c55e" stroke-width="12" stroke-linecap="round" stroke-linejoin="round"/>
</svg>
